<svg id="svg" xmlns="http://www.w3.org/2000/svg" xmlns:xlink="http://www.w3.org/1999/xlink" width="400" height="400" viewBox="0, 0, 400,400"><g id="svgg"><path id="path0" d="M104.288 2.290 C 80.872 10.630,71.227 38.024,84.773 57.717 C 88.003 62.413,88.020 62.500,85.686 62.500 C 80.203 62.500,70.165 67.926,65.290 73.525 C 57.335 82.663,56.311 88.134,56.276 121.680 L 56.250 146.094 34.570 146.111 C 10.210 146.130,8.910 146.374,4.130 151.818 C -0.227 156.780,-0.089 152.997,0.160 260.604 L 0.391 360.661 2.522 363.881 C 3.694 365.652,6.330 368.087,8.381 369.293 L 12.109 371.484 34.083 371.724 L 56.057 371.963 56.394 380.763 C 56.778 390.814,58.043 393.871,63.125 397.031 L 66.016 398.828 115.682 398.828 L 165.349 398.828 168.180 396.888 C 173.110 393.510,174.219 390.512,174.219 380.558 L 174.219 371.875 180.520 371.875 C 188.917 371.875,192.109 370.098,192.163 365.394 C 192.213 360.990,189.295 359.375,181.286 359.375 L 174.219 359.375 174.219 351.563 L 174.219 343.750 200.000 343.750 L 225.781 343.750 225.781 351.563 L 225.781 359.375 218.324 359.375 C 210.071 359.375,207.031 360.925,207.031 365.135 C 207.031 370.284,209.881 371.875,219.102 371.875 L 225.781 371.875 225.781 380.558 C 225.781 390.512,226.890 393.510,231.820 396.888 L 234.651 398.828 284.318 398.828 L 333.984 398.828 336.875 397.031 C 341.957 393.871,343.222 390.814,343.606 380.763 L 343.943 371.963 365.917 371.724 L 387.891 371.484 391.461 369.385 C 393.425 368.231,396.062 365.800,397.320 363.984 L 399.609 360.681 399.821 309.263 C 400.059 251.411,400.391 254.688,394.290 254.688 C 388.406 254.687,388.718 252.745,388.281 292.103 L 387.891 327.302 386.112 329.081 C 384.365 330.829,383.980 330.863,363.691 331.091 L 343.048 331.322 342.148 327.979 C 338.898 315.909,327.010 304.865,315.623 303.338 C 312.124 302.869,311.848 302.395,313.960 300.484 C 320.381 294.672,323.070 275.095,318.880 264.654 C 307.683 236.751,269.695 233.000,253.553 258.203 C 245.009 271.543,245.915 290.535,255.607 301.257 L 257.096 302.904 253.477 303.400 C 241.973 304.977,230.369 315.318,226.965 327.028 L 225.731 331.271 199.887 331.065 L 174.042 330.859 172.655 326.377 C 169.050 314.723,157.969 304.943,146.643 303.418 L 142.895 302.914 144.389 301.262 C 155.836 288.600,154.747 266.087,142.036 252.647 C 123.704 233.264,91.141 239.682,81.120 264.654 C 76.930 275.095,79.619 294.672,86.040 300.484 C 88.179 302.419,87.874 302.891,84.126 303.453 C 72.598 305.182,61.100 315.915,57.852 327.979 L 56.952 331.322 36.309 331.091 C 16.017 330.863,15.636 330.829,13.888 329.080 L 12.109 327.300 12.109 244.592 C 12.109 164.354,12.154 161.834,13.598 160.238 C 15.079 158.601,15.301 158.594,61.840 158.594 L 108.594 158.594 108.594 173.515 C 108.594 197.851,111.332 200.797,134.514 201.401 L 147.543 201.740 147.795 217.472 L 148.047 233.203 150.329 236.569 C 151.585 238.420,154.221 240.881,156.189 242.038 L 159.766 244.141 182.256 244.531 C 196.856 244.785,204.942 245.213,205.303 245.753 C 207.723 249.368,226.190 271.257,227.340 271.873 C 230.327 273.472,234.969 272.801,237.683 270.379 L 240.234 268.101 240.484 256.420 L 240.734 244.738 245.241 244.330 C 259.218 243.062,261.679 237.946,261.702 210.101 L 261.719 189.343 259.570 185.106 C 258.165 182.334,256.252 180.057,254.037 178.520 L 250.653 176.172 236.654 175.927 L 222.656 175.683 222.656 167.138 L 222.656 158.594 303.785 158.594 L 384.914 158.594 386.402 160.238 C 387.815 161.799,387.902 163.766,388.108 199.199 C 388.351 241.102,388.092 239.375,394.141 239.375 C 400.270 239.375,400.000 241.285,400.000 197.901 C 400.000 143.648,401.663 146.140,365.430 146.111 L 343.750 146.094 343.724 121.680 C 343.689 88.134,342.665 82.663,334.710 73.525 C 329.835 67.926,319.797 62.500,314.314 62.500 C 311.980 62.500,311.997 62.413,315.227 57.717 C 331.645 33.849,313.727 0.781,284.375 0.781 C 254.254 0.781,236.511 35.874,254.795 59.285 C 256.715 61.743,256.630 62.500,254.436 62.500 C 246.473 62.500,234.070 71.215,229.551 79.986 C 225.984 86.908,225.799 88.788,225.790 118.164 L 225.781 146.094 223.985 146.094 C 222.641 146.094,221.940 145.405,221.200 143.359 C 217.822 134.017,213.838 132.491,191.992 132.167 L 174.219 131.903 174.210 111.069 C 174.200 85.951,173.376 82.158,166.093 73.715 C 161.222 68.068,151.030 62.500,145.564 62.500 C 143.370 62.500,143.285 61.743,145.205 59.285 C 166.622 31.862,137.022 -9.369,104.288 2.290 M124.464 14.857 C 140.569 20.882,144.870 42.019,132.507 54.382 C 117.801 69.089,92.765 59.646,91.544 38.932 C 90.488 21.019,107.561 8.532,124.464 14.857 M295.206 15.551 C 314.030 25.261,312.491 52.639,292.705 60.042 C 268.278 69.181,249.197 38.250,267.891 19.818 C 274.605 13.198,286.916 11.275,295.206 15.551 M144.416 75.048 C 158.380 78.043,161.846 85.086,161.539 109.843 L 161.328 126.826 153.202 116.892 C 141.330 102.380,138.117 100.789,132.344 106.563 L 129.688 109.219 129.688 120.517 L 129.688 131.816 125.195 132.342 C 117.166 133.282,111.491 137.345,109.257 143.752 L 108.441 146.094 101.486 146.094 L 94.531 146.094 94.531 128.242 C 94.531 106.160,93.908 103.906,87.797 103.906 C 82.342 103.906,82.031 105.136,82.031 126.699 L 82.031 146.094 75.336 146.094 L 68.642 146.094 68.891 118.945 C 69.213 83.909,71.327 78.646,86.511 75.069 C 90.790 74.061,139.730 74.043,144.416 75.048 M317.578 76.406 C 329.738 81.998,330.800 85.336,331.109 118.945 L 331.358 146.094 324.664 146.094 L 317.969 146.094 317.969 126.808 C 317.969 105.273,317.631 103.906,312.312 103.906 C 306.078 103.906,305.469 106.074,305.469 128.242 L 305.469 146.094 284.413 146.094 L 263.358 146.094 263.124 126.492 C 262.891 106.964,262.884 106.885,261.046 105.399 C 258.642 103.453,255.411 103.503,252.840 105.525 L 250.781 107.145 250.781 126.619 L 250.781 146.094 244.531 146.094 L 238.281 146.094 238.316 118.945 C 238.352 89.707,238.497 88.484,242.550 83.171 C 248.844 74.919,252.206 74.243,285.938 74.444 C 313.046 74.606,313.760 74.650,317.578 76.406 M151.357 134.619 C 159.902 144.803,157.495 144.077,184.213 144.531 L 207.172 144.922 208.664 146.766 C 210.005 148.424,210.156 149.988,210.156 162.196 L 210.156 175.781 185.352 175.798 C 155.398 175.819,152.868 176.535,148.859 186.133 L 147.635 189.063 137.150 189.063 C 126.963 189.063,122.923 188.385,121.708 186.475 C 120.947 185.279,120.932 148.324,121.692 147.187 C 122.886 145.399,125.845 144.531,130.748 144.531 C 139.271 144.531,142.147 140.707,142.208 129.297 L 142.237 123.828 143.970 125.855 C 144.923 126.970,148.247 130.914,151.357 134.619 M247.656 189.844 C 249.132 191.319,249.219 192.448,249.219 210.100 L 249.219 228.793 247.160 230.412 C 245.600 231.639,243.973 232.031,240.442 232.031 C 231.058 232.031,228.735 234.590,228.146 245.574 L 227.734 253.258 220.098 243.894 C 209.919 231.411,211.766 232.031,184.750 232.031 C 164.323 232.031,163.205 231.955,161.719 230.469 C 159.522 228.272,159.283 192.103,161.449 189.710 C 163.556 187.382,245.321 187.508,247.656 189.844 M126.172 256.445 C 149.030 268.228,141.214 301.953,115.625 301.953 C 88.405 301.953,82.011 264.835,107.549 255.069 C 112.231 253.279,121.334 253.951,126.172 256.445 M294.683 256.120 C 318.048 267.521,310.304 301.953,284.375 301.953 C 256.277 301.953,251.184 263.360,278.125 254.598 C 281.842 253.389,290.768 254.210,294.683 256.120 M144.282 315.888 C 159.671 319.114,161.874 324.760,161.560 360.156 L 161.328 386.328 155.273 386.556 L 149.219 386.784 149.219 367.575 L 149.219 348.366 147.301 346.449 C 145.206 344.354,143.288 344.063,140.357 345.399 C 137.042 346.909,136.719 348.951,136.719 368.396 L 136.719 386.719 115.625 386.719 L 94.531 386.719 94.531 368.867 C 94.531 358.416,94.191 350.039,93.711 348.662 C 92.302 344.619,87.597 343.391,84.090 346.150 L 82.031 347.770 82.031 367.244 L 82.031 386.719 76.268 386.719 C 72.205 386.719,70.228 386.387,69.570 385.594 C 67.724 383.369,68.791 333.175,70.775 328.906 C 74.126 321.698,80.162 316.853,87.283 315.655 C 93.771 314.564,138.844 314.749,144.282 315.888 M317.227 316.879 C 322.425 319.284,326.210 322.954,328.680 327.983 L 330.859 332.422 331.111 358.446 C 331.404 388.681,331.916 386.719,323.732 386.719 L 317.969 386.719 317.969 367.244 L 317.969 347.770 315.910 346.150 C 312.403 343.391,307.698 344.619,306.289 348.662 C 305.809 350.039,305.469 358.416,305.469 368.867 L 305.469 386.719 284.375 386.719 L 263.281 386.719 263.281 368.396 C 263.281 348.951,262.958 346.909,259.643 345.399 C 256.712 344.063,254.794 344.354,252.699 346.449 L 250.781 348.366 250.781 367.575 L 250.781 386.784 244.727 386.556 L 238.672 386.328 238.440 360.156 C 238.044 315.554,238.864 314.789,286.719 315.074 C 312.292 315.226,313.854 315.319,317.227 316.879 M38.086 343.743 L 56.250 343.750 56.250 351.563 L 56.250 359.375 36.756 359.375 C 11.842 359.375,11.719 359.318,11.719 347.821 L 11.719 342.751 15.820 343.244 C 18.076 343.515,28.096 343.739,38.086 343.743 M388.281 347.930 C 388.281 359.303,388.123 359.375,363.244 359.375 L 343.750 359.375 343.750 351.576 L 343.750 343.777 363.477 343.554 C 374.326 343.432,384.346 343.250,385.742 343.150 L 388.281 342.969 388.281 347.930 " stroke="none" fill="#000000" fill-rule="evenodd"></path></g></svg>