<svg id="svg" xmlns="http://www.w3.org/2000/svg" xmlns:xlink="http://www.w3.org/1999/xlink" width="400" height="400" viewBox="0, 0, 400,400"><g id="svgg"><path id="path0" d="M91.797 13.984 C 84.842 17.211,81.250 23.335,81.250 31.963 L 81.250 37.414 58.008 37.653 L 34.766 37.891 30.078 40.186 C 24.100 43.114,18.124 49.092,15.189 55.078 L 12.891 59.766 12.891 212.500 L 12.891 365.234 15.189 369.922 C 18.124 375.908,24.100 381.886,30.078 384.814 L 34.766 387.109 200.000 387.109 L 365.234 387.109 369.922 384.811 C 375.904 381.878,381.878 375.904,384.811 369.922 L 387.109 365.234 387.109 212.500 L 387.109 59.766 384.811 55.078 C 381.878 49.096,375.904 43.122,369.922 40.189 L 365.234 37.891 341.992 37.653 L 318.750 37.414 318.733 31.793 C 318.696 19.855,311.461 12.476,299.830 12.517 C 288.399 12.557,281.250 20.056,281.250 32.006 L 281.250 37.500 250.000 37.500 L 218.750 37.500 218.750 32.006 C 218.750 19.967,211.593 12.534,200.000 12.534 C 188.407 12.534,181.250 19.967,181.250 32.006 L 181.250 37.500 150.000 37.500 L 118.750 37.500 118.733 31.836 C 118.688 17.142,104.812 7.946,91.797 13.984 M103.094 26.546 C 106.379 28.304,108.015 63.795,105.130 70.700 C 103.143 75.456,96.857 75.456,94.870 70.700 C 93.497 67.413,93.244 33.496,94.566 29.934 C 95.987 26.108,99.596 24.674,103.094 26.546 M203.094 26.546 C 206.379 28.304,208.015 63.795,205.130 70.700 C 203.143 75.456,196.857 75.456,194.870 70.700 C 193.497 67.413,193.244 33.496,194.566 29.934 C 195.987 26.108,199.596 24.674,203.094 26.546 M303.094 26.546 C 306.379 28.304,308.015 63.795,305.130 70.700 C 303.143 75.456,296.857 75.456,294.870 70.700 C 293.497 67.413,293.244 33.496,294.566 29.934 C 295.987 26.108,299.596 24.674,303.094 26.546 M81.267 61.914 C 81.294 80.618,86.405 87.531,100.170 87.483 C 113.676 87.436,118.750 80.406,118.750 61.744 L 118.750 50.000 150.000 50.000 L 181.250 50.000 181.267 61.914 C 181.294 80.533,186.395 87.500,200.000 87.500 C 213.605 87.500,218.706 80.533,218.733 61.914 L 218.750 50.000 250.000 50.000 L 281.250 50.000 281.267 61.914 C 281.294 80.533,286.395 87.500,300.000 87.500 C 313.623 87.500,318.706 80.539,318.733 61.847 L 318.750 49.866 339.258 50.135 C 373.440 50.583,374.430 51.661,374.853 88.867 L 375.121 112.500 200.000 112.500 L 24.879 112.500 25.147 88.867 C 25.573 51.413,26.696 50.252,62.695 50.086 L 81.250 50.000 81.267 61.914 M374.819 242.383 C 374.581 375.445,375.213 363.312,368.196 369.632 C 362.251 374.987,375.019 374.609,200.000 374.609 C 24.981 374.609,37.749 374.987,31.804 369.632 C 24.787 363.312,25.419 375.445,25.181 242.383 L 24.970 125.000 200.000 125.000 L 375.030 125.000 374.819 242.383 M233.365 157.227 C 232.646 157.764,228.771 165.223,224.755 173.803 L 217.454 189.403 203.454 191.535 C 184.407 194.436,184.488 194.418,182.769 196.137 C 178.649 200.257,180.091 203.019,193.321 216.351 L 205.392 228.516 202.703 244.922 C 199.532 264.271,199.543 264.052,201.619 266.692 C 204.617 270.503,207.540 269.730,223.434 260.918 L 237.561 253.086 251.604 260.918 C 275.501 274.245,276.968 273.106,272.299 244.856 L 269.599 228.516 281.674 216.351 C 292.763 205.181,293.750 203.957,293.750 201.376 C 293.750 195.036,293.277 194.812,273.522 191.811 L 257.591 189.390 250.263 173.797 C 242.397 157.059,241.809 156.250,237.500 156.250 C 235.946 156.250,234.085 156.689,233.365 157.227 M126.563 170.313 C 125.104 171.771,125.000 172.917,125.000 187.500 C 125.000 207.973,123.277 206.250,143.750 206.250 C 164.223 206.250,162.500 207.973,162.500 187.500 C 162.500 172.917,162.396 171.771,160.938 170.313 C 159.479 168.854,158.333 168.750,143.750 168.750 C 129.167 168.750,128.021 168.854,126.563 170.313 M314.063 170.313 C 312.604 171.771,312.500 172.917,312.500 187.500 C 312.500 202.083,312.604 203.229,314.063 204.688 C 315.521 206.146,316.667 206.250,331.250 206.250 C 345.833 206.250,346.979 206.146,348.438 204.688 C 349.896 203.229,350.000 202.083,350.000 187.500 C 350.000 167.027,351.723 168.750,331.250 168.750 C 316.667 168.750,315.521 168.854,314.063 170.313 M242.540 189.087 C 248.408 201.928,247.653 201.337,260.664 203.279 C 274.478 205.341,274.263 204.712,264.557 214.665 C 254.885 224.583,255.166 223.553,257.847 239.266 C 258.726 244.415,259.273 248.799,259.064 249.009 C 258.855 249.218,254.494 247.065,249.372 244.226 C 237.624 237.712,237.525 237.712,225.715 244.241 C 220.563 247.090,216.169 249.242,215.951 249.024 C 215.734 248.807,216.274 244.415,217.153 239.266 C 219.834 223.553,220.115 224.583,210.443 214.665 C 200.737 204.712,200.527 205.331,214.298 203.312 C 227.267 201.411,226.504 202.008,232.423 189.138 C 235.000 183.534,237.285 178.940,237.500 178.931 C 237.715 178.922,239.983 183.492,242.540 189.087 M150.000 187.500 L 150.000 193.750 143.750 193.750 L 137.500 193.750 137.500 187.500 L 137.500 181.250 143.750 181.250 L 150.000 181.250 150.000 187.500 M337.500 187.500 L 337.500 193.750 331.250 193.750 L 325.000 193.750 325.000 187.500 L 325.000 181.250 331.250 181.250 L 337.500 181.250 337.500 187.500 M64.063 232.813 C 62.604 234.271,62.500 235.417,62.500 250.000 C 62.500 270.473,60.777 268.750,81.250 268.750 C 101.723 268.750,100.000 270.473,100.000 250.000 C 100.000 229.527,101.723 231.250,81.250 231.250 C 66.667 231.250,65.521 231.354,64.063 232.813 M126.563 232.813 C 125.104 234.271,125.000 235.417,125.000 250.000 C 125.000 270.473,123.277 268.750,143.750 268.750 C 164.223 268.750,162.500 270.473,162.500 250.000 C 162.500 229.527,164.223 231.250,143.750 231.250 C 129.167 231.250,128.021 231.354,126.563 232.813 M314.063 232.813 C 312.604 234.271,312.500 235.417,312.500 250.000 C 312.500 264.583,312.604 265.729,314.063 267.188 C 315.521 268.646,316.667 268.750,331.250 268.750 C 345.833 268.750,346.979 268.646,348.438 267.188 C 349.896 265.729,350.000 264.583,350.000 250.000 C 350.000 235.417,349.896 234.271,348.438 232.813 C 346.979 231.354,345.833 231.250,331.250 231.250 C 316.667 231.250,315.521 231.354,314.063 232.813 M87.500 250.000 L 87.500 256.250 81.250 256.250 L 75.000 256.250 75.000 250.000 L 75.000 243.750 81.250 243.750 L 87.500 243.750 87.500 250.000 M150.000 250.000 L 150.000 256.250 143.750 256.250 L 137.500 256.250 137.500 250.000 L 137.500 243.750 143.750 243.750 L 150.000 243.750 150.000 250.000 M337.500 250.000 L 337.500 256.250 331.250 256.250 L 325.000 256.250 325.000 250.000 L 325.000 243.750 331.250 243.750 L 337.500 243.750 337.500 250.000 M64.063 295.313 C 62.604 296.771,62.500 297.917,62.500 312.500 C 62.500 332.973,60.777 331.250,81.250 331.250 C 101.723 331.250,100.000 332.973,100.000 312.500 C 100.000 292.027,101.723 293.750,81.250 293.750 C 66.667 293.750,65.521 293.854,64.063 295.313 M126.563 295.313 C 125.104 296.771,125.000 297.917,125.000 312.500 C 125.000 332.973,123.277 331.250,143.750 331.250 C 164.223 331.250,162.500 332.973,162.500 312.500 C 162.500 292.027,164.223 293.750,143.750 293.750 C 129.167 293.750,128.021 293.854,126.563 295.313 M189.063 295.313 C 187.604 296.771,187.500 297.917,187.500 312.500 C 187.500 332.973,185.777 331.250,206.250 331.250 C 220.833 331.250,221.979 331.146,223.438 329.688 C 224.896 328.229,225.000 327.083,225.000 312.500 C 225.000 297.917,224.896 296.771,223.438 295.313 C 221.979 293.854,220.833 293.750,206.250 293.750 C 191.667 293.750,190.521 293.854,189.063 295.313 M251.563 295.313 C 250.104 296.771,250.000 297.917,250.000 312.500 C 250.000 327.083,250.104 328.229,251.563 329.688 C 253.021 331.146,254.167 331.250,268.750 331.250 C 283.333 331.250,284.479 331.146,285.938 329.688 C 287.396 328.229,287.500 327.083,287.500 312.500 C 287.500 297.917,287.396 296.771,285.938 295.313 C 284.479 293.854,283.333 293.750,268.750 293.750 C 254.167 293.750,253.021 293.854,251.563 295.313 M314.063 295.313 C 312.604 296.771,312.500 297.917,312.500 312.500 C 312.500 327.083,312.604 328.229,314.063 329.688 C 315.521 331.146,316.667 331.250,331.250 331.250 C 345.833 331.250,346.979 331.146,348.438 329.688 C 349.896 328.229,350.000 327.083,350.000 312.500 C 350.000 297.917,349.896 296.771,348.438 295.313 C 346.979 293.854,345.833 293.750,331.250 293.750 C 316.667 293.750,315.521 293.854,314.063 295.313 M87.500 312.500 L 87.500 318.750 81.250 318.750 L 75.000 318.750 75.000 312.500 L 75.000 306.250 81.250 306.250 L 87.500 306.250 87.500 312.500 M150.000 312.500 L 150.000 318.750 143.750 318.750 L 137.500 318.750 137.500 312.500 L 137.500 306.250 143.750 306.250 L 150.000 306.250 150.000 312.500 M212.500 312.500 L 212.500 318.750 206.250 318.750 L 200.000 318.750 200.000 312.500 L 200.000 306.250 206.250 306.250 L 212.500 306.250 212.500 312.500 M275.000 312.500 L 275.000 318.750 268.750 318.750 L 262.500 318.750 262.500 312.500 L 262.500 306.250 268.750 306.250 L 275.000 306.250 275.000 312.500 M337.500 312.500 L 337.500 318.750 331.250 318.750 L 325.000 318.750 325.000 312.500 L 325.000 306.250 331.250 306.250 L 337.500 306.250 337.500 312.500 " stroke="none" fill="#000000" fill-rule="evenodd"></path></g></svg>