<svg id="svg" xmlns="http://www.w3.org/2000/svg" xmlns:xlink="http://www.w3.org/1999/xlink" width="400" height="400" viewBox="0, 0, 400,400"><g id="svgg"><path id="path0" d="M190.461 34.467 C 142.243 40.680,115.122 95.504,139.153 138.182 C 165.582 185.115,234.418 185.115,260.847 138.182 C 289.085 88.035,247.724 27.089,190.461 34.467 M213.445 60.144 C 246.056 70.220,256.196 111.719,231.967 135.948 C 203.394 164.521,154.705 144.103,154.630 103.516 C 154.574 73.099,184.338 51.150,213.445 60.144 M67.473 99.604 C 34.439 106.788,16.353 142.940,30.742 173.024 C 52.038 217.548,116.731 211.277,128.949 163.504 C 138.399 126.555,104.685 91.511,67.473 99.604 M310.559 99.682 C 281.951 106.084,263.846 135.332,271.051 163.504 C 283.269 211.277,347.962 217.548,369.258 173.024 C 387.691 134.487,352.350 90.330,310.559 99.682 M89.426 125.278 C 107.397 133.505,111.777 156.789,97.955 170.611 C 80.254 188.312,50.387 175.848,50.392 150.762 C 50.396 130.569,71.247 116.955,89.426 125.278 M328.516 123.716 C 349.517 129.312,356.881 154.779,341.953 170.182 C 329.118 183.423,307.924 181.223,298.065 165.625 C 284.841 144.704,304.702 117.370,328.516 123.716 M159.766 179.391 C 140.407 181.908,124.313 191.873,115.364 206.883 C 113.157 210.584,112.680 210.971,110.938 210.478 C 107.400 209.477,53.164 209.208,47.656 210.165 C 27.399 213.683,9.385 229.475,2.465 249.783 L 0.394 255.859 0.164 296.381 C -0.114 345.334,0.199 346.999,11.595 357.137 C 22.683 367.000,9.923 366.375,200.000 366.375 C 390.077 366.375,377.317 367.000,388.405 357.137 C 399.801 346.999,400.114 345.334,399.836 296.381 L 399.606 255.859 397.535 249.783 C 390.615 229.475,372.601 213.683,352.344 210.165 C 346.836 209.208,292.600 209.477,289.063 210.478 C 287.320 210.971,286.843 210.584,284.636 206.883 C 277.261 194.512,263.952 184.862,248.438 180.634 C 244.363 179.524,167.076 178.440,159.766 179.391 M239.844 203.934 C 252.529 205.924,263.343 215.219,267.778 227.945 C 268.917 231.213,269.097 238.034,269.333 286.914 L 269.600 342.188 200.000 342.188 L 130.400 342.188 130.667 286.914 C 130.903 238.034,131.083 231.213,132.222 227.945 C 136.532 215.578,147.469 205.935,159.375 204.004 C 165.467 203.017,233.617 202.957,239.844 203.934 M104.492 234.086 L 106.250 234.557 106.250 288.394 L 106.250 342.231 68.945 342.014 L 31.641 341.797 29.090 339.977 C 23.709 336.140,23.828 337.088,23.828 298.047 C 23.828 263.126,23.840 262.855,25.673 257.547 C 29.225 247.259,38.047 238.448,48.047 235.203 C 52.761 233.673,99.500 232.748,104.492 234.086 M351.676 235.161 C 361.890 238.384,370.726 247.117,374.327 257.547 C 376.160 262.855,376.172 263.126,376.172 298.047 C 376.172 337.088,376.291 336.140,370.910 339.977 L 368.359 341.797 331.055 342.014 L 293.750 342.231 293.750 288.360 C 293.750 237.712,293.832 234.468,295.117 234.132 C 300.155 232.816,346.941 233.666,351.676 235.161 " stroke="none" fill="#000000" fill-rule="evenodd"></path></g></svg>