<svg id="svg" version="1.1" xmlns="http://www.w3.org/2000/svg" xmlns:xlink="http://www.w3.org/1999/xlink" width="400" height="400" viewBox="0, 0, 400,400"><g id="svgg"><path id="path0" d="M196.800 95.454 C 192.008 96.052,186.470 99.864,183.717 104.458 C 181.144 108.753,181.201 107.831,181.194 145.584 C 181.191 164.403,181.050 180.017,180.881 180.283 C 180.646 180.653,172.462 180.797,145.987 180.896 C 114.374 181.014,111.194 181.086,109.000 181.729 C 102.960 183.502,98.455 187.875,95.944 194.400 C 95.615 195.254,95.405 197.439,95.405 200.000 C 95.405 204.224,95.608 205.153,97.334 208.800 C 98.524 211.316,102.921 215.625,105.649 216.951 C 110.063 219.096,111.955 219.197,147.857 219.198 C 177.449 219.200,180.739 219.263,180.957 219.833 C 181.091 220.181,181.200 235.803,181.200 254.549 C 181.200 284.062,181.283 288.952,181.821 291.016 C 185.509 305.180,204.148 309.496,214.053 298.479 C 215.641 296.712,216.303 295.607,218.049 291.800 C 218.501 290.816,218.618 284.340,218.698 255.800 C 218.751 236.660,218.890 220.595,219.005 220.100 L 219.215 219.200 252.108 219.198 C 292.473 219.197,292.798 219.161,298.436 214.092 C 303.713 209.347,306.289 200.306,304.047 194.395 C 301.592 187.922,297.039 183.502,291.000 181.729 C 288.806 181.085,285.624 181.014,253.903 180.896 L 219.207 180.767 219.001 179.883 C 218.888 179.398,218.751 163.340,218.698 144.200 C 218.618 115.660,218.501 109.184,218.049 108.200 C 216.303 104.393,215.641 103.288,214.053 101.521 C 209.812 96.804,203.571 94.609,196.800 95.454 " stroke="none" fill="#949494" fill-rule="evenodd"></path><path id="path1" d="M178.204 0.299 C 175.755 0.391,174.798 0.554,175.204 0.811 C 175.608 1.066,174.827 1.190,172.780 1.194 C 171.119 1.197,169.589 1.370,169.380 1.577 C 169.171 1.784,167.973 1.995,166.718 2.045 C 165.463 2.095,164.529 2.285,164.642 2.468 C 164.755 2.650,163.757 2.800,162.424 2.800 C 161.075 2.800,160.000 2.977,160.000 3.200 C 160.000 3.420,159.280 3.600,158.400 3.600 C 157.520 3.600,156.800 3.780,156.800 4.000 C 156.800 4.220,155.900 4.400,154.800 4.400 C 153.700 4.400,152.800 4.580,152.800 4.800 C 152.800 5.020,152.206 5.200,151.480 5.200 C 150.754 5.200,149.986 5.374,149.773 5.587 C 149.561 5.799,148.805 6.017,148.093 6.072 C 147.382 6.126,146.800 6.312,146.800 6.485 C 146.800 6.658,146.170 6.800,145.400 6.800 C 144.630 6.800,144.000 6.980,144.000 7.200 C 144.000 7.420,143.550 7.600,143.000 7.600 C 142.450 7.600,142.000 7.755,142.000 7.944 C 142.000 8.133,140.982 8.393,139.737 8.522 C 138.493 8.650,137.326 8.990,137.144 9.278 C 136.961 9.565,136.809 9.629,136.806 9.420 C 136.803 9.211,136.598 9.242,136.351 9.489 C 136.104 9.736,135.654 9.842,135.351 9.726 C 135.048 9.610,134.800 9.674,134.800 9.870 C 134.800 10.066,134.337 10.264,133.771 10.311 C 133.204 10.358,132.374 10.653,131.925 10.968 C 131.476 11.282,130.829 11.433,130.488 11.302 C 130.081 11.145,129.968 11.224,130.158 11.532 C 130.352 11.846,130.078 12.004,129.324 12.013 C 128.706 12.020,127.858 12.284,127.441 12.600 C 127.024 12.916,126.556 13.096,126.402 13.001 C 126.247 12.906,125.747 13.176,125.290 13.602 C 124.703 14.149,124.401 14.233,124.261 13.888 C 124.109 13.512,124.056 13.515,124.032 13.900 C 124.014 14.175,123.640 14.400,123.200 14.400 C 122.760 14.400,122.400 14.580,122.400 14.800 C 122.400 15.020,121.860 15.200,121.200 15.200 C 120.540 15.200,120.000 15.380,120.000 15.600 C 120.000 15.820,119.640 16.000,119.200 16.000 C 118.760 16.000,118.400 16.180,118.400 16.400 C 118.400 16.620,118.040 16.800,117.600 16.800 C 117.160 16.800,116.800 16.936,116.800 17.102 C 116.800 17.269,116.215 17.640,115.500 17.929 C 114.785 18.217,113.887 18.621,113.505 18.826 C 113.123 19.032,112.538 19.200,112.205 19.200 C 111.872 19.200,111.600 19.358,111.600 19.551 C 111.600 19.745,111.015 20.137,110.300 20.424 C 109.585 20.710,108.248 21.452,107.328 22.072 C 106.408 22.692,105.373 23.200,105.028 23.200 C 104.683 23.200,104.400 23.336,104.400 23.502 C 104.400 23.669,103.815 24.047,103.100 24.343 C 101.877 24.849,100.095 25.696,98.361 26.595 C 97.943 26.812,97.600 27.127,97.600 27.295 C 97.600 27.463,97.352 27.600,97.049 27.600 C 96.746 27.600,96.276 27.868,96.004 28.196 C 95.732 28.523,95.350 28.693,95.155 28.572 C 94.960 28.451,94.800 28.543,94.800 28.776 C 94.800 29.009,94.519 29.200,94.176 29.200 C 93.833 29.200,93.664 29.380,93.800 29.600 C 93.936 29.820,93.789 30.000,93.473 30.000 C 93.157 30.000,92.670 30.274,92.392 30.610 C 92.114 30.945,91.802 31.136,91.700 31.034 C 91.598 30.932,91.140 31.197,90.682 31.624 C 90.224 32.051,89.613 32.400,89.325 32.400 C 89.036 32.400,88.800 32.580,88.800 32.800 C 88.800 33.020,88.557 33.200,88.259 33.200 C 87.962 33.200,87.154 33.740,86.463 34.400 C 85.772 35.060,84.975 35.600,84.692 35.600 C 84.409 35.600,83.917 35.960,83.600 36.400 C 83.283 36.840,82.820 37.200,82.571 37.200 C 82.322 37.200,81.554 37.740,80.863 38.400 C 80.172 39.060,79.471 39.600,79.304 39.600 C 78.855 39.601,76.613 41.597,77.038 41.618 C 77.237 41.627,76.703 42.003,75.850 42.453 C 74.998 42.902,73.867 43.660,73.337 44.135 C 72.807 44.611,72.019 45.315,71.586 45.700 C 71.154 46.085,70.609 46.400,70.376 46.400 C 70.143 46.400,70.064 46.580,70.200 46.800 C 70.336 47.020,70.209 47.200,69.919 47.200 C 69.628 47.200,69.053 47.649,68.641 48.198 C 68.229 48.746,67.106 49.691,66.147 50.298 C 65.187 50.904,64.401 51.636,64.401 51.924 C 64.400 52.212,64.265 52.373,64.100 52.282 C 63.704 52.063,60.387 55.454,60.695 55.762 C 60.826 55.893,60.678 56.001,60.367 56.001 C 60.055 56.002,59.457 56.514,59.038 57.139 C 58.619 57.765,57.765 58.619,57.139 59.038 C 56.514 59.457,56.002 60.055,56.001 60.367 C 56.001 60.678,55.891 60.824,55.758 60.691 C 55.491 60.425,54.041 61.823,53.385 62.977 C 53.157 63.379,52.797 63.716,52.585 63.725 C 52.061 63.749,51.587 64.271,50.051 66.515 C 49.331 67.568,48.394 68.647,47.970 68.911 C 47.547 69.176,47.200 69.630,47.200 69.920 C 47.200 70.210,47.020 70.336,46.800 70.200 C 46.433 69.973,46.222 70.520,46.363 71.330 C 46.394 71.511,46.244 71.551,46.030 71.419 C 45.816 71.286,45.423 71.588,45.157 72.089 C 44.892 72.590,44.375 73.270,44.009 73.600 C 43.644 73.930,43.228 74.515,43.085 74.900 C 42.942 75.285,42.639 75.600,42.413 75.600 C 42.186 75.600,42.000 75.870,42.000 76.200 C 42.000 76.530,41.820 76.800,41.600 76.800 C 41.380 76.800,41.200 77.081,41.200 77.424 C 41.200 77.767,41.036 77.946,40.835 77.821 C 40.634 77.697,40.230 78.136,39.937 78.798 C 39.644 79.459,39.269 80.000,39.102 80.000 C 38.936 80.000,38.800 80.227,38.800 80.504 C 38.800 80.781,38.440 81.232,38.000 81.507 C 37.560 81.782,37.200 82.275,37.200 82.603 C 37.200 82.932,37.020 83.200,36.800 83.200 C 36.580 83.200,36.397 83.605,36.394 84.100 C 36.389 84.828,36.314 84.885,36.000 84.400 C 35.671 83.890,35.611 83.908,35.606 84.518 C 35.603 84.913,35.159 85.678,34.619 86.217 C 34.080 86.756,33.351 87.804,32.999 88.545 C 32.648 89.286,32.054 90.238,31.680 90.662 C 31.306 91.085,30.944 91.683,30.875 91.990 C 30.806 92.298,30.401 92.852,29.975 93.222 C 29.549 93.591,29.200 94.098,29.200 94.347 C 29.200 94.596,29.058 94.800,28.884 94.800 C 28.710 94.800,28.069 95.745,27.461 96.900 C 26.852 98.055,26.018 99.540,25.606 100.200 C 25.195 100.860,24.845 101.715,24.829 102.100 C 24.813 102.485,24.620 102.800,24.400 102.800 C 24.180 102.800,24.000 103.160,24.000 103.600 C 24.000 104.040,23.820 104.400,23.600 104.400 C 23.380 104.400,23.200 104.760,23.200 105.200 C 23.200 105.640,23.020 106.000,22.800 106.000 C 22.580 106.000,22.400 106.236,22.400 106.525 C 22.400 106.813,22.040 107.436,21.600 107.908 C 21.160 108.380,20.800 109.044,20.800 109.383 C 20.800 109.722,20.620 110.000,20.400 110.000 C 20.180 110.000,20.000 110.360,20.000 110.800 C 20.000 111.240,19.859 111.600,19.687 111.600 C 19.515 111.600,19.135 112.410,18.843 113.400 C 18.551 114.390,18.152 115.200,17.956 115.200 C 17.760 115.200,17.600 115.560,17.600 116.000 C 17.600 116.440,17.420 116.800,17.200 116.800 C 16.980 116.800,16.796 117.205,16.791 117.700 C 16.786 118.195,16.430 119.050,16.000 119.600 C 15.570 120.150,15.214 120.897,15.209 121.259 C 15.204 121.622,14.670 122.927,14.021 124.159 C 13.373 125.392,12.944 126.400,13.067 126.400 C 13.191 126.400,13.001 126.844,12.646 127.386 C 12.291 127.928,12.000 128.738,12.000 129.186 C 12.000 129.634,11.801 130.000,11.557 130.000 C 11.314 130.000,11.210 130.249,11.327 130.554 C 11.444 130.859,11.273 131.489,10.947 131.955 C 10.621 132.420,10.457 132.969,10.583 133.173 C 10.710 133.377,10.627 133.660,10.400 133.800 C 10.173 133.940,10.091 134.223,10.217 134.428 C 10.344 134.632,10.237 134.800,9.981 134.800 C 9.724 134.800,9.610 135.048,9.726 135.351 C 9.842 135.654,9.736 136.104,9.489 136.351 C 9.242 136.598,9.211 136.803,9.420 136.806 C 9.629 136.809,9.570 136.958,9.289 137.136 C 9.009 137.314,8.669 138.392,8.534 139.530 C 8.399 140.669,8.134 141.600,7.944 141.600 C 7.755 141.600,7.600 142.140,7.600 142.800 C 7.600 143.460,7.420 144.000,7.200 144.000 C 6.980 144.000,6.800 144.630,6.800 145.400 C 6.800 146.170,6.658 146.800,6.485 146.800 C 6.312 146.800,6.126 147.378,6.072 148.084 C 6.018 148.791,5.841 149.466,5.679 149.584 C 5.516 149.703,5.325 150.430,5.254 151.200 C 5.184 151.970,4.963 152.660,4.763 152.733 C 4.563 152.807,4.400 153.741,4.400 154.810 C 4.400 155.878,4.220 156.864,4.000 157.000 C 3.780 157.136,3.600 157.867,3.600 158.624 C 3.600 159.381,3.420 160.000,3.200 160.000 C 2.980 160.000,2.800 160.864,2.800 161.920 C 2.800 162.976,2.636 164.011,2.435 164.220 C 2.080 164.590,1.808 166.578,1.355 172.100 C 1.234 173.585,1.005 174.800,0.847 174.800 C 0.417 174.800,0.402 175.222,0.146 193.983 C -0.092 211.461,0.206 225.367,0.811 224.993 C 0.990 224.883,1.235 226.099,1.355 227.696 C 1.761 233.092,2.069 235.398,2.435 235.780 C 2.636 235.989,2.800 237.024,2.800 238.080 C 2.800 239.136,2.980 240.000,3.200 240.000 C 3.420 240.000,3.600 240.720,3.600 241.600 C 3.600 242.480,3.780 243.200,4.000 243.200 C 4.220 243.200,4.400 244.085,4.400 245.167 C 4.400 246.248,4.563 247.193,4.763 247.267 C 4.963 247.340,5.184 248.030,5.254 248.800 C 5.325 249.570,5.516 250.297,5.679 250.416 C 5.841 250.534,6.018 251.209,6.072 251.916 C 6.126 252.622,6.312 253.200,6.485 253.200 C 6.658 253.200,6.800 253.830,6.800 254.600 C 6.800 255.370,6.980 256.000,7.200 256.000 C 7.420 256.000,7.600 256.540,7.600 257.200 C 7.600 257.860,7.780 258.400,8.000 258.400 C 8.220 258.400,8.400 259.041,8.400 259.824 C 8.400 260.607,8.554 261.152,8.742 261.036 C 8.930 260.919,8.999 261.269,8.896 261.812 C 8.781 262.410,8.893 262.800,9.177 262.800 C 9.436 262.800,9.544 262.968,9.417 263.172 C 9.291 263.377,9.362 263.653,9.576 263.785 C 9.790 263.917,9.864 264.290,9.740 264.613 C 9.616 264.936,9.724 265.200,9.981 265.200 C 10.237 265.200,10.344 265.368,10.217 265.572 C 10.091 265.777,10.173 266.060,10.400 266.200 C 10.627 266.340,10.702 266.634,10.567 266.853 C 10.432 267.072,10.614 267.573,10.970 267.967 C 11.331 268.366,11.507 268.976,11.367 269.342 C 11.226 269.708,11.311 270.000,11.557 270.000 C 11.801 270.000,12.000 270.315,11.999 270.700 C 11.998 271.085,12.388 272.210,12.865 273.200 C 14.968 277.567,15.200 278.106,15.200 278.626 C 15.200 278.928,15.560 279.817,16.000 280.600 C 16.440 281.383,16.800 282.289,16.800 282.612 C 16.800 282.935,16.936 283.200,17.102 283.200 C 17.269 283.200,17.640 283.785,17.929 284.500 C 18.217 285.215,18.621 286.113,18.826 286.495 C 19.032 286.877,19.200 287.462,19.200 287.795 C 19.200 288.128,19.380 288.400,19.600 288.400 C 19.820 288.400,20.000 288.760,20.000 289.200 C 20.000 289.640,20.180 290.000,20.400 290.000 C 20.620 290.000,20.800 290.278,20.800 290.617 C 20.800 290.956,21.160 291.620,21.600 292.092 C 22.040 292.564,22.400 293.187,22.400 293.475 C 22.400 293.764,22.580 294.000,22.800 294.000 C 23.020 294.000,23.200 294.360,23.200 294.800 C 23.200 295.240,23.336 295.600,23.502 295.600 C 23.833 295.600,25.026 298.039,24.902 298.462 C 24.860 298.606,25.090 298.943,25.413 299.211 C 25.736 299.479,26.000 299.946,26.000 300.249 C 26.000 300.552,26.180 300.800,26.400 300.800 C 26.620 300.800,26.800 301.126,26.800 301.525 C 26.800 301.923,27.160 302.636,27.600 303.108 C 28.040 303.580,28.400 304.244,28.400 304.583 C 28.400 304.922,28.580 305.200,28.800 305.200 C 29.020 305.200,29.200 305.404,29.200 305.653 C 29.200 305.902,29.549 306.409,29.975 306.778 C 30.401 307.148,30.806 307.702,30.875 308.010 C 30.944 308.317,31.306 308.915,31.680 309.338 C 32.054 309.762,32.648 310.714,32.999 311.455 C 33.351 312.196,34.080 313.244,34.619 313.783 C 35.159 314.322,35.603 315.087,35.606 315.482 C 35.611 316.092,35.671 316.110,36.000 315.600 C 36.314 315.115,36.389 315.172,36.394 315.900 C 36.397 316.395,36.536 316.800,36.702 316.800 C 36.869 316.800,37.244 317.341,37.537 318.002 C 37.830 318.664,38.234 319.103,38.435 318.979 C 38.636 318.854,38.800 319.033,38.800 319.376 C 38.800 319.719,38.980 320.000,39.200 320.000 C 39.420 320.000,39.600 320.225,39.600 320.500 C 39.601 320.775,40.051 321.523,40.600 322.162 C 41.150 322.801,41.603 323.161,41.606 322.962 C 41.611 322.622,42.413 323.859,43.057 325.200 C 43.215 325.530,43.640 326.070,44.001 326.400 C 44.362 326.730,45.110 327.674,45.664 328.498 C 46.218 329.322,46.790 329.877,46.935 329.731 C 47.081 329.586,47.200 329.723,47.200 330.037 C 47.200 330.351,47.547 330.824,47.970 331.089 C 48.394 331.353,49.331 332.432,50.051 333.485 C 51.585 335.726,52.268 336.472,52.642 336.314 C 52.791 336.251,53.112 336.553,53.356 336.984 C 53.764 337.703,54.749 338.719,58.300 342.081 C 59.015 342.758,59.600 343.467,59.600 343.656 C 59.600 343.845,59.881 344.000,60.224 344.000 C 60.567 344.000,60.773 344.135,60.682 344.300 C 60.591 344.465,61.288 345.357,62.231 346.282 C 63.286 347.318,64.021 347.779,64.141 347.482 C 64.249 347.217,64.351 347.360,64.369 347.800 C 64.389 348.290,65.078 349.028,66.147 349.702 C 67.106 350.309,68.229 351.254,68.641 351.802 C 69.053 352.351,69.628 352.800,69.919 352.800 C 70.209 352.800,70.336 352.980,70.200 353.200 C 70.064 353.420,70.143 353.600,70.376 353.600 C 70.609 353.600,71.154 353.915,71.586 354.300 C 73.820 356.288,74.315 356.661,75.676 357.378 C 76.487 357.806,77.061 358.301,76.952 358.478 C 76.842 358.655,77.044 358.800,77.400 358.800 C 77.756 358.800,77.953 358.953,77.837 359.140 C 77.722 359.327,78.113 359.732,78.707 360.040 C 79.300 360.348,80.311 361.095,80.952 361.700 C 81.594 362.305,82.322 362.800,82.571 362.800 C 82.820 362.800,83.276 363.150,83.585 363.579 C 83.893 364.007,84.273 364.279,84.427 364.183 C 84.582 364.087,85.395 364.637,86.233 365.404 C 87.071 366.172,87.991 366.800,88.278 366.800 C 88.565 366.800,88.800 366.980,88.800 367.200 C 88.800 367.420,89.036 367.600,89.325 367.600 C 89.613 367.600,90.198 367.915,90.625 368.300 C 91.051 368.685,91.895 369.255,92.500 369.568 C 93.105 369.880,93.600 370.285,93.600 370.468 C 93.600 370.650,93.870 370.800,94.200 370.800 C 94.530 370.800,94.801 370.935,94.803 371.100 C 94.807 371.465,96.749 372.400,97.503 372.400 C 97.802 372.400,97.936 372.580,97.800 372.800 C 97.664 373.020,97.821 373.200,98.148 373.200 C 98.475 373.200,98.981 373.435,99.271 373.722 C 99.726 374.171,100.951 374.831,101.600 374.976 C 102.369 375.147,104.400 376.251,104.400 376.498 C 104.400 376.664,104.760 376.800,105.200 376.800 C 105.640 376.800,106.001 376.935,106.003 377.100 C 106.005 377.265,106.410 377.598,106.903 377.840 C 107.396 378.081,109.240 379.009,111.000 379.902 C 112.760 380.795,114.785 381.766,115.500 382.060 C 116.215 382.355,116.800 382.731,116.800 382.898 C 116.800 383.064,117.149 383.200,117.576 383.200 C 118.003 383.200,118.466 383.383,118.604 383.607 C 118.742 383.830,119.002 383.922,119.182 383.811 C 119.362 383.700,119.732 383.877,120.004 384.204 C 120.276 384.532,120.926 384.800,121.449 384.800 C 121.972 384.800,122.400 384.980,122.400 385.200 C 122.400 385.420,122.745 385.600,123.167 385.600 C 123.588 385.600,124.024 385.825,124.135 386.100 C 124.292 386.490,124.344 386.486,124.368 386.084 C 124.389 385.742,124.690 385.839,125.261 386.371 C 125.734 386.812,126.247 387.094,126.402 386.999 C 126.556 386.904,127.024 387.084,127.441 387.400 C 127.858 387.716,128.605 387.980,129.100 387.987 C 129.595 387.994,130.000 388.199,130.000 388.443 C 130.000 388.686,130.249 388.790,130.554 388.673 C 130.859 388.556,131.444 388.690,131.854 388.970 C 132.503 389.414,134.132 389.994,135.400 390.233 C 135.620 390.274,135.980 390.350,136.200 390.401 C 136.420 390.453,136.735 390.473,136.900 390.447 C 137.065 390.421,137.200 390.601,137.200 390.847 C 137.200 391.108,137.618 391.213,138.210 391.100 C 138.765 390.994,139.315 391.063,139.433 391.254 C 139.551 391.444,140.177 391.600,140.824 391.600 C 141.471 391.600,142.000 391.780,142.000 392.000 C 142.000 392.220,142.450 392.400,143.000 392.400 C 143.550 392.400,144.000 392.580,144.000 392.800 C 144.000 393.020,144.619 393.200,145.376 393.200 C 146.133 393.200,146.864 393.380,147.000 393.600 C 147.136 393.820,147.766 394.000,148.400 394.000 C 149.034 394.000,149.664 394.180,149.800 394.400 C 149.936 394.620,150.667 394.800,151.424 394.800 C 152.181 394.800,152.800 394.980,152.800 395.200 C 152.800 395.420,153.700 395.600,154.800 395.600 C 155.900 395.600,156.800 395.780,156.800 396.000 C 156.800 396.220,157.610 396.400,158.600 396.400 C 159.590 396.400,160.400 396.580,160.400 396.800 C 160.400 397.020,161.401 397.200,162.624 397.200 C 163.847 397.200,164.755 397.350,164.642 397.532 C 164.529 397.715,165.459 397.906,166.710 397.957 C 167.960 398.007,169.077 398.188,169.191 398.358 C 169.306 398.529,170.568 398.712,171.996 398.766 C 173.424 398.820,174.684 399.004,174.796 399.176 C 175.324 399.981,224.228 400.126,224.724 399.324 C 224.898 399.041,226.191 398.813,227.909 398.763 C 229.499 398.717,230.800 398.526,230.800 398.339 C 230.800 398.153,231.869 398.000,233.176 398.000 C 234.483 398.000,235.664 397.820,235.800 397.600 C 235.936 397.380,236.937 397.200,238.024 397.200 C 239.111 397.200,240.000 397.020,240.000 396.800 C 240.000 396.580,240.720 396.400,241.600 396.400 C 242.480 396.400,243.200 396.220,243.200 396.000 C 243.200 395.780,244.100 395.600,245.200 395.600 C 246.300 395.600,247.200 395.420,247.200 395.200 C 247.200 394.980,247.920 394.800,248.800 394.800 C 249.680 394.800,250.400 394.620,250.400 394.400 C 250.400 394.180,250.929 394.000,251.576 394.000 C 252.223 394.000,252.864 393.820,253.000 393.600 C 253.136 393.380,253.867 393.200,254.624 393.200 C 255.381 393.200,256.000 393.020,256.000 392.800 C 256.000 392.580,256.525 392.400,257.167 392.400 C 257.808 392.400,258.393 392.239,258.467 392.042 C 258.540 391.845,259.230 391.587,260.000 391.469 C 262.311 391.115,263.255 390.852,263.778 390.419 C 264.050 390.192,264.375 390.109,264.500 390.233 C 264.624 390.357,265.282 390.171,265.963 389.819 C 266.643 389.467,267.200 389.278,267.200 389.399 C 267.200 389.520,267.619 389.344,268.132 389.008 C 268.644 388.672,269.194 388.528,269.354 388.687 C 269.513 388.846,269.777 388.762,269.939 388.499 C 270.102 388.235,270.614 387.962,271.078 387.891 C 271.542 387.821,272.181 387.548,272.498 387.285 C 272.814 387.022,273.171 386.904,273.290 387.023 C 273.409 387.142,274.163 386.870,274.965 386.420 C 275.768 385.969,276.689 385.600,277.012 385.600 C 277.335 385.600,277.600 385.420,277.600 385.200 C 277.600 384.980,278.039 384.800,278.576 384.800 C 279.113 384.800,279.664 384.620,279.800 384.400 C 279.936 384.180,280.397 384.000,280.824 384.000 C 281.251 384.000,281.600 383.820,281.600 383.600 C 281.600 383.380,281.960 383.200,282.400 383.200 C 282.840 383.200,283.200 383.064,283.200 382.898 C 283.200 382.731,283.785 382.358,284.500 382.067 C 285.215 381.777,286.492 381.193,287.338 380.770 C 288.184 380.346,289.129 380.000,289.438 380.000 C 289.747 380.000,290.000 379.820,290.000 379.600 C 290.000 379.380,290.278 379.200,290.617 379.200 C 290.956 379.200,291.620 378.840,292.092 378.400 C 292.564 377.960,293.187 377.600,293.475 377.600 C 293.764 377.600,294.000 377.420,294.000 377.200 C 294.000 376.980,294.360 376.800,294.800 376.800 C 295.240 376.800,295.600 376.620,295.600 376.400 C 295.600 376.180,295.945 376.000,296.367 376.000 C 296.788 376.000,297.197 375.810,297.274 375.578 C 297.351 375.346,297.708 375.113,298.067 375.061 C 298.426 375.008,298.962 374.785,299.260 374.564 C 299.557 374.344,301.015 373.544,302.500 372.786 C 303.985 372.028,305.200 371.272,305.200 371.104 C 305.200 370.937,305.442 370.800,305.738 370.800 C 306.034 370.800,306.602 370.440,307.000 370.000 C 307.398 369.560,307.884 369.200,308.079 369.200 C 308.274 369.200,308.651 369.023,308.917 368.806 C 311.187 366.955,311.914 366.448,312.072 366.606 C 312.173 366.706,312.941 366.161,313.778 365.395 C 314.615 364.628,315.450 364.000,315.632 364.000 C 315.814 364.000,316.403 363.561,316.939 363.024 C 317.476 362.488,318.020 362.153,318.148 362.281 C 318.276 362.410,318.495 362.219,318.633 361.857 C 318.772 361.496,319.097 361.200,319.354 361.200 C 319.612 361.200,320.076 360.850,320.385 360.421 C 320.693 359.993,321.070 359.719,321.221 359.813 C 321.613 360.055,323.239 358.573,322.926 358.259 C 322.783 358.117,323.057 358.000,323.533 358.000 C 324.052 358.000,324.400 357.749,324.400 357.376 C 324.400 357.033,324.568 356.857,324.774 356.984 C 324.980 357.111,325.579 356.785,326.105 356.259 C 326.631 355.733,327.457 355.090,327.942 354.831 C 328.426 354.572,328.714 354.184,328.581 353.970 C 328.449 353.756,328.489 353.606,328.670 353.637 C 329.520 353.785,330.000 353.547,330.000 352.976 C 330.000 352.633,330.147 352.444,330.327 352.555 C 330.507 352.666,330.912 352.390,331.227 351.940 C 331.542 351.491,332.610 350.564,333.600 349.881 C 335.577 348.516,336.220 347.955,336.329 347.500 C 336.368 347.335,336.496 347.206,336.613 347.213 C 336.822 347.226,339.769 344.258,341.438 342.355 C 341.899 341.830,342.653 341.143,343.114 340.829 C 343.575 340.515,343.918 340.065,343.876 339.829 C 343.834 339.593,343.980 339.422,344.200 339.449 C 344.597 339.498,346.852 337.365,347.212 336.600 C 347.315 336.380,347.535 336.245,347.700 336.300 C 347.865 336.355,348.014 335.995,348.032 335.500 C 348.049 335.005,348.158 334.839,348.275 335.130 C 348.407 335.460,349.003 334.894,349.854 333.630 C 350.606 332.514,351.366 331.600,351.543 331.600 C 351.720 331.600,352.102 331.156,352.393 330.614 C 352.683 330.071,353.073 329.722,353.260 329.837 C 353.447 329.953,353.600 329.857,353.600 329.624 C 353.600 329.391,353.915 328.846,354.300 328.414 C 354.685 327.981,355.397 327.186,355.882 326.647 C 356.366 326.107,357.131 324.979,357.582 324.139 C 358.032 323.299,358.400 322.757,358.400 322.934 C 358.400 323.400,359.550 322.183,359.686 321.574 C 359.749 321.292,360.475 320.329,361.300 319.433 C 362.125 318.537,362.800 317.661,362.800 317.486 C 362.800 317.069,364.315 314.940,365.698 313.412 C 366.302 312.746,366.797 311.975,366.798 311.700 C 366.799 311.425,366.980 311.200,367.200 311.200 C 367.420 311.200,367.600 310.964,367.600 310.675 C 367.600 310.387,367.949 309.776,368.376 309.318 C 368.803 308.860,369.068 308.402,368.966 308.300 C 368.864 308.198,369.055 307.886,369.390 307.608 C 369.726 307.330,370.000 306.856,370.000 306.554 C 370.000 306.253,370.360 305.782,370.800 305.507 C 371.240 305.232,371.600 304.691,371.600 304.304 C 371.600 303.917,371.747 303.600,371.926 303.600 C 372.322 303.600,374.000 300.530,374.000 299.805 C 374.000 299.519,374.270 299.182,374.600 299.055 C 374.930 298.929,375.200 298.459,375.200 298.013 C 375.200 297.566,375.391 297.200,375.624 297.200 C 375.857 297.200,375.945 297.035,375.820 296.832 C 375.695 296.630,375.864 296.193,376.196 295.861 C 376.528 295.529,376.800 295.047,376.800 294.790 C 376.800 294.267,378.398 291.873,378.886 291.667 C 379.058 291.593,379.200 291.304,379.200 291.023 C 379.200 290.742,379.725 289.452,380.367 288.156 C 381.009 286.860,381.773 285.215,382.065 284.500 C 382.357 283.785,382.731 283.200,382.898 283.200 C 383.064 283.200,383.200 282.784,383.200 282.275 C 383.200 281.767,383.560 280.964,384.000 280.492 C 384.440 280.020,384.800 279.291,384.800 278.873 C 384.800 278.238,385.815 275.897,387.646 272.305 C 387.841 271.923,388.000 271.248,388.000 270.805 C 388.000 270.362,388.199 270.000,388.443 270.000 C 388.686 270.000,388.790 269.751,388.673 269.446 C 388.556 269.141,388.720 268.521,389.037 268.068 C 389.355 267.615,389.573 267.099,389.522 266.922 C 389.472 266.745,389.657 266.191,389.934 265.692 C 390.210 265.192,390.336 264.620,390.212 264.419 C 390.088 264.219,390.173 263.940,390.400 263.800 C 390.627 263.660,390.709 263.377,390.583 263.172 C 390.456 262.968,390.564 262.800,390.823 262.800 C 391.110 262.800,391.218 262.407,391.100 261.790 C 390.994 261.235,391.063 260.685,391.254 260.567 C 391.444 260.449,391.600 259.913,391.600 259.376 C 391.600 258.839,391.780 258.400,392.000 258.400 C 392.220 258.400,392.400 257.860,392.400 257.200 C 392.400 256.540,392.580 256.000,392.800 256.000 C 393.020 256.000,393.200 255.381,393.200 254.624 C 393.200 253.867,393.380 253.136,393.600 253.000 C 393.820 252.864,394.003 251.998,394.006 251.076 C 394.011 249.847,394.116 249.560,394.400 250.000 C 394.684 250.439,394.789 250.145,394.794 248.900 C 394.797 247.965,394.980 247.200,395.200 247.200 C 395.420 247.200,395.600 246.311,395.600 245.224 C 395.600 244.137,395.780 243.136,396.000 243.000 C 396.220 242.864,396.400 242.133,396.400 241.376 C 396.400 240.619,396.580 240.000,396.800 240.000 C 397.020 240.000,397.200 239.010,397.200 237.800 C 397.200 236.590,397.349 235.600,397.532 235.600 C 397.714 235.600,397.905 234.569,397.956 233.309 C 398.007 232.048,398.188 230.923,398.358 230.809 C 398.529 230.694,398.712 229.432,398.766 228.004 C 398.820 226.576,399.004 225.316,399.176 225.204 C 399.981 224.676,400.126 175.373,399.324 174.877 C 399.048 174.706,398.812 173.451,398.761 171.891 C 398.713 170.411,398.539 169.200,398.374 169.200 C 398.094 169.200,397.928 168.076,397.356 162.300 C 397.231 161.035,396.965 160.000,396.764 160.000 C 396.564 160.000,396.400 159.269,396.400 158.376 C 396.400 157.396,396.242 156.851,396.000 157.000 C 395.752 157.153,395.600 156.404,395.600 155.024 C 395.600 153.801,395.420 152.800,395.200 152.800 C 394.980 152.800,394.797 152.035,394.794 151.100 C 394.789 149.855,394.684 149.561,394.400 150.000 C 394.120 150.434,394.011 150.074,394.006 148.700 C 394.003 147.655,393.820 146.800,393.600 146.800 C 393.380 146.800,393.200 146.185,393.200 145.433 C 393.200 144.682,393.022 144.007,392.803 143.933 C 392.585 143.860,392.366 143.305,392.316 142.700 C 392.266 142.095,392.085 141.600,391.913 141.600 C 391.741 141.600,391.600 141.161,391.600 140.624 C 391.600 140.087,391.437 139.546,391.238 139.423 C 391.038 139.300,390.964 138.858,391.074 138.440 C 391.183 138.023,390.985 137.244,390.635 136.709 C 390.284 136.174,390.102 135.631,390.231 135.502 C 390.360 135.374,390.232 134.848,389.947 134.334 C 389.663 133.820,389.472 133.255,389.522 133.078 C 389.573 132.901,389.355 132.385,389.037 131.932 C 388.720 131.479,388.556 130.859,388.673 130.554 C 388.790 130.249,388.686 130.000,388.443 130.000 C 388.199 130.000,388.000 129.634,388.000 129.186 C 388.000 128.738,387.709 127.928,387.354 127.386 C 386.999 126.844,386.823 126.400,386.963 126.400 C 387.104 126.400,386.924 125.950,386.563 125.400 C 386.203 124.850,386.064 124.397,386.254 124.394 C 386.444 124.391,386.420 124.256,386.200 124.094 C 385.544 123.612,384.800 122.069,384.800 121.189 C 384.800 120.737,384.440 119.980,384.000 119.508 C 383.560 119.036,383.200 118.233,383.200 117.725 C 383.200 117.216,383.064 116.800,382.898 116.800 C 382.731 116.800,382.360 116.215,382.071 115.500 C 381.783 114.785,381.379 113.887,381.174 113.505 C 380.968 113.123,380.800 112.538,380.800 112.205 C 380.800 111.872,380.620 111.600,380.400 111.600 C 380.180 111.600,380.000 111.240,380.000 110.800 C 380.000 110.360,379.820 110.000,379.600 110.000 C 379.380 110.000,379.200 109.655,379.200 109.233 C 379.200 108.812,379.058 108.407,378.886 108.333 C 378.320 108.094,376.800 105.692,376.800 105.038 C 376.800 104.687,376.664 104.400,376.498 104.400 C 376.331 104.400,375.979 103.905,375.714 103.300 C 374.399 100.298,373.909 99.287,373.143 98.000 C 372.685 97.230,372.164 96.508,371.987 96.396 C 371.809 96.284,371.605 95.924,371.532 95.596 C 371.459 95.268,371.085 94.765,370.700 94.477 C 370.315 94.190,370.000 93.710,370.000 93.411 C 370.000 93.111,369.833 92.807,369.630 92.733 C 369.426 92.660,369.201 92.337,369.130 92.016 C 369.058 91.694,368.685 91.075,368.300 90.640 C 367.915 90.205,367.600 89.613,367.600 89.325 C 367.600 89.036,367.420 88.800,367.200 88.800 C 366.980 88.800,366.796 88.575,366.791 88.300 C 366.786 88.025,366.201 87.124,365.491 86.299 C 363.462 83.940,362.200 82.260,362.200 81.919 C 362.200 81.747,361.579 80.930,360.821 80.103 C 360.062 79.276,359.503 78.536,359.579 78.458 C 359.842 78.187,358.652 76.844,358.327 77.045 C 358.147 77.156,358.000 76.877,358.000 76.424 C 358.000 75.944,357.739 75.600,357.376 75.600 C 357.033 75.600,356.853 75.438,356.975 75.241 C 357.171 74.923,356.763 74.368,354.221 71.500 C 353.879 71.115,353.600 70.710,353.600 70.599 C 353.600 70.489,352.948 69.783,352.151 69.032 C 351.354 68.280,350.185 66.885,349.553 65.933 C 348.921 64.980,348.400 64.470,348.396 64.800 C 348.389 65.320,348.338 65.322,348.020 64.819 C 347.818 64.500,347.742 64.095,347.850 63.919 C 347.958 63.744,347.756 63.600,347.400 63.600 C 347.044 63.600,346.828 63.465,346.920 63.300 C 347.096 62.984,344.887 60.668,344.200 60.448 C 343.980 60.378,343.834 60.190,343.876 60.031 C 343.918 59.872,343.575 59.485,343.114 59.171 C 342.653 58.857,341.899 58.170,341.438 57.645 C 339.166 55.054,336.866 52.867,336.646 53.087 C 336.511 53.223,336.400 53.110,336.400 52.838 C 336.400 52.234,335.366 51.154,334.692 51.054 C 334.421 51.014,333.174 49.971,331.920 48.737 C 330.667 47.502,329.542 46.592,329.420 46.713 C 329.299 46.834,329.200 46.645,329.200 46.294 C 329.200 45.942,328.834 45.538,328.387 45.396 C 327.940 45.254,327.138 44.702,326.605 44.169 C 326.072 43.636,325.443 43.200,325.206 43.200 C 324.969 43.200,324.671 42.930,324.545 42.600 C 324.418 42.270,324.152 42.000,323.954 42.000 C 323.755 42.000,323.028 41.460,322.337 40.800 C 321.646 40.140,320.929 39.600,320.744 39.600 C 320.558 39.600,320.000 39.247,319.503 38.815 C 319.006 38.383,318.506 38.068,318.390 38.115 C 318.275 38.162,317.647 37.705,316.994 37.100 C 316.342 36.495,315.691 36.000,315.548 36.000 C 315.405 36.000,314.593 35.374,313.744 34.609 C 312.895 33.844,312.057 33.214,311.883 33.209 C 311.709 33.204,311.349 33.014,311.083 32.786 C 310.671 32.433,308.275 30.828,306.029 29.400 C 305.683 29.180,305.310 28.885,305.200 28.744 C 305.090 28.603,303.690 27.814,302.089 26.989 C 300.489 26.164,299.083 25.334,298.966 25.145 C 298.849 24.955,298.403 24.800,297.976 24.800 C 297.549 24.800,297.200 24.620,297.200 24.400 C 297.200 24.180,296.840 24.000,296.400 24.000 C 295.960 24.000,295.600 23.820,295.600 23.600 C 295.600 23.380,295.240 23.200,294.800 23.200 C 294.360 23.200,294.000 23.020,294.000 22.800 C 294.000 22.580,293.764 22.400,293.475 22.400 C 293.187 22.400,292.564 22.040,292.092 21.600 C 291.620 21.160,290.956 20.800,290.617 20.800 C 290.278 20.800,290.000 20.609,290.000 20.376 C 290.000 20.143,289.835 20.055,289.632 20.180 C 289.430 20.305,288.993 20.136,288.661 19.804 C 288.329 19.472,287.774 19.200,287.429 19.200 C 287.083 19.200,286.800 19.020,286.800 18.800 C 286.800 18.580,286.656 18.445,286.480 18.500 C 285.981 18.656,283.200 17.490,283.200 17.125 C 283.200 16.946,282.840 16.800,282.400 16.800 C 281.960 16.800,281.600 16.620,281.600 16.400 C 281.600 16.180,281.240 16.000,280.800 16.000 C 280.360 16.000,280.000 15.820,280.000 15.600 C 280.000 15.380,279.648 15.200,279.219 15.200 C 278.278 15.200,276.314 14.375,275.906 13.808 C 275.744 13.584,275.609 13.556,275.606 13.746 C 275.603 13.936,275.150 13.797,274.600 13.437 C 274.050 13.076,273.600 12.882,273.600 13.005 C 273.600 13.128,273.195 13.003,272.700 12.728 C 271.687 12.166,271.531 12.120,270.376 12.050 C 269.873 12.019,269.661 11.824,269.832 11.548 C 270.003 11.272,269.895 11.173,269.556 11.294 C 269.250 11.403,268.640 11.300,268.200 11.065 C 267.379 10.627,266.580 10.386,265.700 10.310 C 265.425 10.286,265.200 10.097,265.200 9.891 C 265.200 9.684,264.952 9.610,264.649 9.726 C 264.346 9.842,263.927 9.767,263.719 9.559 C 263.286 9.126,262.055 8.788,259.900 8.510 C 259.075 8.403,258.400 8.155,258.400 7.958 C 258.400 7.761,257.860 7.600,257.200 7.600 C 256.540 7.600,256.000 7.420,256.000 7.200 C 256.000 6.980,255.370 6.800,254.600 6.800 C 253.830 6.800,253.200 6.658,253.200 6.485 C 253.200 6.312,252.622 6.126,251.916 6.072 C 251.209 6.018,250.534 5.841,250.416 5.679 C 250.297 5.516,249.570 5.325,248.800 5.254 C 248.030 5.184,247.340 4.963,247.267 4.763 C 247.193 4.563,246.248 4.400,245.167 4.400 C 244.085 4.400,243.200 4.220,243.200 4.000 C 243.200 3.780,242.379 3.600,241.376 3.600 C 240.373 3.600,239.654 3.437,239.777 3.237 C 239.987 2.898,239.211 2.769,233.300 2.165 C 232.035 2.035,230.829 1.765,230.620 1.565 C 230.411 1.364,229.005 1.200,227.496 1.200 C 225.987 1.200,224.847 1.048,224.962 0.861 C 225.415 0.129,193.113 -0.259,178.204 0.299 M205.028 95.082 C 210.851 96.458,216.227 101.375,218.496 107.400 L 219.400 109.800 219.600 145.000 L 219.800 180.200 255.000 180.400 L 290.200 180.600 292.600 181.504 C 309.804 187.982,309.804 212.018,292.600 218.496 L 290.200 219.400 255.000 219.600 L 219.800 219.800 219.600 255.000 L 219.400 290.200 218.496 292.600 C 212.051 309.714,187.949 309.714,181.504 292.600 L 180.600 290.200 180.400 255.000 L 180.200 219.800 145.000 219.600 L 109.800 219.400 107.400 218.496 C 96.337 214.330,91.344 201.748,96.549 191.148 C 98.669 186.831,102.649 183.293,107.400 181.504 L 109.800 180.600 145.000 180.400 L 180.200 180.200 180.400 145.000 L 180.600 109.800 181.504 107.400 C 185.107 97.832,194.921 92.693,205.028 95.082 " stroke="none" fill="#e4e4e4" fill-rule="evenodd"></path><path id="path2" d="M196.315 94.728 C 195.938 94.878,197.494 95.000,199.773 95.000 C 202.052 95.000,203.711 94.868,203.458 94.706 C 202.888 94.341,197.247 94.358,196.315 94.728 M189.800 97.274 C 188.148 98.204,185.994 100.093,184.734 101.719 C 183.766 102.966,184.046 102.770,185.815 100.961 C 187.127 99.619,188.785 98.219,189.500 97.850 C 190.215 97.481,190.800 97.094,190.800 96.990 C 190.800 96.733,190.724 96.755,189.800 97.274 M209.200 96.933 C 209.200 97.021,209.965 97.580,210.900 98.175 C 211.835 98.770,213.479 100.189,214.553 101.328 C 216.297 103.178,216.370 103.220,215.234 101.719 C 213.683 99.668,209.200 96.112,209.200 96.933 M182.581 104.837 C 182.229 105.518,182.012 106.145,182.099 106.232 C 182.186 106.319,182.556 105.762,182.922 104.995 C 183.744 103.270,183.459 103.138,182.581 104.837 M216.400 103.790 C 216.400 103.895,216.759 104.570,217.199 105.290 C 218.138 106.831,218.269 106.481,217.390 104.780 C 216.841 103.719,216.400 103.278,216.400 103.790 M180.656 110.084 C 180.521 110.588,180.427 111.360,180.446 111.800 C 180.465 112.240,180.645 111.898,180.846 111.040 C 181.236 109.378,181.070 108.540,180.656 110.084 M219.073 110.800 C 219.204 111.790,219.376 112.675,219.456 112.767 C 219.757 113.114,219.528 110.564,219.190 109.800 C 218.953 109.266,218.914 109.598,219.073 110.800 M109.800 180.819 C 109.242 181.071,109.485 181.107,110.600 180.938 C 111.480 180.804,112.275 180.628,112.367 180.547 C 112.710 180.244,110.568 180.471,109.800 180.819 M287.633 180.547 C 287.725 180.628,288.520 180.804,289.400 180.938 C 290.515 181.107,290.758 181.071,290.200 180.819 C 289.432 180.471,287.290 180.244,287.633 180.547 M104.700 182.629 C 103.149 183.470,103.325 183.761,104.900 182.959 C 106.408 182.193,106.675 181.994,106.167 182.016 C 105.965 182.025,105.305 182.301,104.700 182.629 M293.633 182.149 C 294.045 182.517,296.400 183.600,296.400 183.421 C 296.400 183.190,294.182 182.000,293.753 182.000 C 293.596 182.000,293.542 182.067,293.633 182.149 M101.361 184.991 C 100.459 185.747,99.230 187.049,98.630 187.883 L 97.539 189.400 98.915 187.846 C 99.672 186.991,100.991 185.692,101.846 184.961 C 102.701 184.229,103.310 183.627,103.200 183.623 C 103.090 183.619,102.262 184.234,101.361 184.991 M299.039 185.815 C 300.381 187.127,301.789 188.802,302.169 189.537 C 302.548 190.273,302.961 190.772,303.086 190.648 C 303.464 190.269,300.174 186.203,298.331 184.773 C 296.972 183.718,297.124 183.942,299.039 185.815 M94.643 196.233 C 94.300 197.125,94.352 203.305,94.706 203.862 C 94.868 204.116,95.000 202.361,95.000 199.962 C 95.000 197.563,94.974 195.600,94.943 195.600 C 94.911 195.600,94.776 195.885,94.643 196.233 M305.000 200.000 C 305.000 202.404,305.122 204.062,305.272 203.685 C 305.421 203.308,305.544 201.650,305.544 200.000 C 305.544 198.350,305.421 196.692,305.272 196.315 C 305.122 195.938,305.000 197.596,305.000 200.000 M97.244 210.100 C 98.103 211.738,100.014 213.944,101.719 215.266 C 102.966 216.234,102.770 215.954,100.961 214.185 C 99.619 212.873,98.219 211.215,97.850 210.500 C 97.481 209.785,97.088 209.200,96.976 209.200 C 96.864 209.200,96.984 209.605,97.244 210.100 M302.150 210.500 C 301.781 211.215,300.381 212.873,299.039 214.185 C 297.230 215.954,297.034 216.234,298.281 215.266 C 300.424 213.605,303.868 209.200,303.024 209.200 C 302.912 209.200,302.519 209.785,302.150 210.500 M103.600 216.596 C 103.600 216.870,106.049 218.084,106.232 217.901 C 106.319 217.814,105.762 217.444,104.995 217.078 C 104.228 216.712,103.600 216.495,103.600 216.596 M294.800 217.200 C 294.030 217.622,293.544 217.974,293.720 217.983 C 294.144 218.005,296.400 216.832,296.400 216.590 C 296.400 216.328,296.377 216.337,294.800 217.200 M109.800 219.181 C 110.568 219.529,112.710 219.756,112.367 219.453 C 112.275 219.372,111.480 219.196,110.600 219.062 C 109.485 218.893,109.242 218.929,109.800 219.181 M288.600 219.200 C 287.511 219.477,287.493 219.507,288.400 219.525 C 288.950 219.535,289.760 219.389,290.200 219.200 C 291.186 218.776,290.266 218.776,288.600 219.200 M219.254 288.000 C 219.219 288.550,219.096 289.450,218.983 290.000 L 218.777 291.000 219.207 290.015 C 219.443 289.474,219.565 288.574,219.478 288.015 L 219.320 287.000 219.254 288.000 M180.428 288.433 C 180.444 288.965,180.619 289.760,180.819 290.200 C 181.071 290.758,181.107 290.515,180.938 289.400 C 180.655 287.543,180.387 287.036,180.428 288.433 M182.000 293.753 C 182.000 294.182,183.190 296.400,183.421 296.400 C 183.531 296.400,183.323 295.815,182.959 295.100 C 182.217 293.640,182.000 293.336,182.000 293.753 M217.080 294.880 C 216.692 295.556,216.457 296.191,216.558 296.291 C 216.659 296.392,217.038 295.901,217.400 295.200 C 218.257 293.543,217.997 293.283,217.080 294.880 M184.559 298.075 C 185.704 299.614,188.353 301.933,189.900 302.752 C 191.364 303.527,190.929 302.992,189.123 301.797 C 188.201 301.187,186.550 299.768,185.454 298.644 C 183.914 297.064,183.711 296.935,184.559 298.075 M214.664 298.548 C 213.876 299.510,212.324 300.879,211.216 301.590 C 209.146 302.918,208.497 303.597,210.100 302.756 C 212.143 301.685,217.213 296.800,216.282 296.800 C 216.180 296.800,215.452 297.587,214.664 298.548 M205.600 304.400 C 205.067 304.745,205.067 304.788,205.600 304.788 C 205.930 304.788,206.470 304.613,206.800 304.400 C 207.333 304.055,207.333 304.012,206.800 304.012 C 206.470 304.012,205.930 304.187,205.600 304.400 M196.540 305.294 C 196.793 305.456,198.350 305.588,200.000 305.588 C 201.650 305.588,203.208 305.456,203.462 305.294 C 203.717 305.132,202.160 305.000,200.002 305.000 C 197.845 305.000,196.287 305.132,196.540 305.294 " stroke="none" fill="#cccccc" fill-rule="evenodd"></path><path id="path3" d="M196.400 95.159 C 195.630 95.298,197.250 95.415,200.000 95.419 C 203.252 95.423,204.441 95.324,203.400 95.136 C 201.509 94.793,198.360 94.804,196.400 95.159 M206.758 96.437 C 207.725 96.866,208.588 97.145,208.675 97.058 C 208.848 96.886,205.765 95.582,205.292 95.628 C 205.131 95.644,205.791 96.008,206.758 96.437 M189.589 97.859 C 187.189 99.459,182.800 104.377,182.800 105.467 C 182.800 105.644,183.405 104.892,184.145 103.795 C 185.468 101.831,188.039 99.253,190.000 97.921 C 190.550 97.548,190.905 97.233,190.789 97.221 C 190.673 97.209,190.133 97.497,189.589 97.859 M210.000 97.863 C 211.890 99.161,215.826 103.402,216.532 104.900 C 217.252 106.430,217.781 106.967,217.320 105.700 C 216.512 103.481,212.128 98.671,209.975 97.643 L 209.000 97.177 210.000 97.863 M217.616 107.126 C 217.607 107.416,217.825 108.046,218.100 108.526 C 218.485 109.199,218.649 117.538,218.815 144.800 L 219.029 180.200 219.015 144.800 C 219.001 112.224,218.945 109.288,218.316 108.000 C 217.939 107.230,217.624 106.837,217.616 107.126 M181.449 108.615 C 181.312 108.973,181.218 109.656,181.241 110.133 C 181.267 110.681,181.403 110.486,181.610 109.603 C 181.960 108.116,181.865 107.533,181.449 108.615 M180.898 145.420 C 180.824 171.547,180.684 179.956,180.320 180.320 C 179.955 180.685,179.953 180.800,180.312 180.800 C 181.183 180.800,181.220 179.128,181.108 145.000 L 180.995 111.000 180.898 145.420 M111.905 181.083 C 112.402 181.179,113.122 181.175,113.505 181.075 C 113.887 180.975,113.480 180.896,112.600 180.901 C 111.720 180.905,111.407 180.987,111.905 181.083 M286.705 181.083 C 287.202 181.179,287.922 181.175,288.305 181.075 C 288.687 180.975,288.280 180.896,287.400 180.901 C 286.520 180.905,286.207 180.987,286.705 181.083 M108.400 181.606 C 107.978 181.882,108.215 181.923,109.200 181.742 C 110.925 181.425,111.251 181.198,109.967 181.206 C 109.435 181.209,108.730 181.389,108.400 181.606 M289.233 181.343 C 289.325 181.421,290.030 181.601,290.800 181.742 C 291.785 181.923,292.022 181.882,291.600 181.606 C 291.058 181.250,288.837 181.003,289.233 181.343 M103.200 184.148 C 101.093 185.702,98.285 188.676,97.633 190.042 C 97.186 190.982,97.191 190.981,97.888 190.000 C 99.364 187.926,101.869 185.443,103.795 184.145 C 104.892 183.405,105.612 182.804,105.395 182.810 C 105.178 182.815,104.190 183.417,103.200 184.148 M296.205 184.145 C 298.131 185.443,300.636 187.926,302.112 190.000 L 302.823 191.000 302.357 190.025 C 301.384 187.987,295.767 182.800,294.533 182.800 C 294.356 182.800,295.108 183.405,296.205 184.145 M94.986 197.795 C 94.833 199.223,94.864 201.428,95.054 202.695 C 95.356 204.706,95.400 204.375,95.404 200.100 C 95.408 194.468,95.366 194.240,94.986 197.795 M304.594 200.000 C 304.594 204.543,304.626 204.772,304.953 202.500 C 305.165 201.024,305.165 198.976,304.953 197.500 C 304.626 195.228,304.594 195.457,304.594 200.000 M303.467 206.867 C 303.105 207.788,302.874 208.607,302.954 208.688 C 303.034 208.768,303.400 208.083,303.767 207.167 C 304.133 206.250,304.364 205.431,304.279 205.346 C 304.194 205.261,303.829 205.945,303.467 206.867 M97.643 209.975 C 98.616 212.013,104.233 217.200,105.467 217.200 C 105.644 217.200,104.892 216.595,103.795 215.855 C 101.869 214.557,99.364 212.074,97.888 210.000 L 97.177 209.000 97.643 209.975 M301.615 210.576 C 300.371 212.589,296.821 215.689,294.351 216.918 C 293.168 217.508,292.408 217.992,292.662 217.995 C 294.391 218.014,300.596 213.058,302.123 210.440 C 303.110 208.746,302.673 208.864,301.615 210.576 M108.411 218.377 C 108.747 218.577,110.187 218.837,111.611 218.954 C 114.055 219.157,114.088 219.148,112.200 218.809 C 111.100 218.611,109.660 218.351,109.000 218.231 C 108.176 218.082,107.991 218.128,108.411 218.377 M288.600 218.638 L 285.800 219.168 288.389 218.954 C 289.813 218.836,291.253 218.579,291.589 218.382 C 292.327 217.950,292.160 217.964,288.600 218.638 M180.320 219.680 C 180.684 220.044,180.824 228.453,180.898 254.580 L 180.995 289.000 181.108 255.000 C 181.220 220.872,181.183 219.200,180.312 219.200 C 179.953 219.200,179.955 219.315,180.320 219.680 M218.871 254.000 C 218.813 272.810,218.607 288.920,218.414 289.800 C 218.220 290.680,217.948 291.850,217.809 292.400 C 217.631 293.103,217.770 292.985,218.278 292.000 C 218.989 290.622,219.535 246.707,219.101 225.800 C 219.033 222.500,218.929 235.190,218.871 254.000 M181.206 290.033 C 181.209 290.565,181.389 291.270,181.606 291.600 C 181.882 292.022,181.923 291.785,181.742 290.800 C 181.425 289.075,181.198 288.749,181.206 290.033 M216.532 295.100 C 215.826 296.598,211.890 300.839,210.000 302.137 L 209.000 302.823 209.975 302.357 C 212.128 301.329,216.512 296.519,217.320 294.300 C 217.781 293.033,217.252 293.570,216.532 295.100 M182.800 294.533 C 182.800 295.767,187.987 301.384,190.025 302.357 L 191.000 302.823 190.000 302.112 C 187.926 300.636,185.443 298.131,184.145 296.205 C 183.405 295.108,182.800 294.356,182.800 294.533 M192.000 303.366 C 192.550 303.660,193.450 304.012,194.000 304.149 C 194.550 304.286,194.280 304.052,193.400 303.629 C 191.590 302.758,190.468 302.548,192.000 303.366 M206.600 303.629 C 205.720 304.052,205.450 304.286,206.000 304.149 C 207.133 303.867,209.212 302.825,208.600 302.846 C 208.380 302.853,207.480 303.206,206.600 303.629 M197.500 304.927 C 198.889 305.117,201.111 305.117,202.500 304.927 C 204.728 304.621,204.456 304.584,200.000 304.584 C 195.544 304.584,195.272 304.621,197.500 304.927 " stroke="none" fill="#b4b4b4" fill-rule="evenodd"></path><path id="path4" d="M186.175 100.500 L 185.000 101.800 186.300 100.625 C 187.512 99.530,187.784 99.200,187.475 99.200 C 187.406 99.200,186.821 99.785,186.175 100.500 M212.400 99.325 C 212.400 99.394,212.985 99.979,213.700 100.625 L 215.000 101.800 213.825 100.500 C 212.730 99.288,212.400 99.016,212.400 99.325 M180.591 146.200 C 180.591 164.900,180.640 172.492,180.700 163.070 C 180.760 153.649,180.760 138.349,180.700 129.070 C 180.640 119.792,180.591 127.500,180.591 146.200 M219.391 146.600 C 219.391 165.300,219.440 172.892,219.500 163.470 C 219.560 154.049,219.560 138.749,219.500 129.470 C 219.440 120.192,219.391 127.900,219.391 146.600 M129.330 180.700 C 138.751 180.760,154.051 180.760,163.330 180.700 C 172.608 180.640,164.900 180.591,146.200 180.591 C 127.500 180.591,119.908 180.640,129.330 180.700 M236.930 180.700 C 246.351 180.760,261.651 180.760,270.930 180.700 C 280.208 180.640,272.500 180.591,253.800 180.591 C 235.100 180.591,227.508 180.640,236.930 180.700 M100.175 186.500 L 99.000 187.800 100.300 186.625 C 101.015 185.979,101.600 185.394,101.600 185.325 C 101.600 185.016,101.270 185.288,100.175 186.500 M298.400 185.325 C 298.400 185.394,298.985 185.979,299.700 186.625 L 301.000 187.800 299.825 186.500 C 298.730 185.288,298.400 185.016,298.400 185.325 M99.200 212.525 C 99.200 212.594,99.785 213.179,100.500 213.825 L 101.800 215.000 100.625 213.700 C 99.530 212.488,99.200 212.216,99.200 212.525 M299.375 213.700 L 298.200 215.000 299.500 213.825 C 300.712 212.730,300.984 212.400,300.675 212.400 C 300.606 212.400,300.021 212.985,299.375 213.700 M129.330 219.500 C 138.751 219.560,154.051 219.560,163.330 219.500 C 172.608 219.440,164.900 219.391,146.200 219.391 C 127.500 219.391,119.908 219.440,129.330 219.500 M236.930 219.500 C 246.351 219.560,261.651 219.560,270.930 219.500 C 280.208 219.440,272.500 219.391,253.800 219.391 C 235.100 219.391,227.508 219.440,236.930 219.500 M219.391 253.400 C 219.391 272.100,219.440 279.692,219.500 270.270 C 219.560 260.849,219.560 245.549,219.500 236.270 C 219.440 226.992,219.391 234.700,219.391 253.400 M180.591 253.800 C 180.591 272.500,180.640 280.092,180.700 270.670 C 180.760 261.249,180.760 245.949,180.700 236.670 C 180.640 227.392,180.591 235.100,180.591 253.800 M213.375 299.700 L 212.200 301.000 213.500 299.825 C 214.215 299.179,214.800 298.594,214.800 298.525 C 214.800 298.216,214.470 298.488,213.375 299.700 " stroke="none" fill="#bcbcbc" fill-rule="evenodd"></path></g></svg>